<svg width="100%" height="100%" viewBox="0 0 169 33" fill="none" xmlns="http://www.w3.org/2000/svg">
<path d="M48.3725 8.61901C48.3725 3.83832 44.3211 0.5 38.5216 0.5C33.8062 0.5 30.5561 2.83765 26.7923 5.54478C26.1627 5.99715 25.5117 6.4661 24.8406 6.93269C22.9043 8.27796 20.8922 9.59007 19.0564 10.7494C18.873 10.8655 18.6446 10.8809 18.4481 10.7909C16.9875 10.1242 14.0949 9.05599 10.5382 9.05599C2.64139 9.05599 0.984375 13.4104 0.984375 17.0637C0.984375 19.965 2.72069 22.3808 6.00393 24.0494C7.01353 24.5622 8.01839 24.9269 8.83742 25.1756C9.47419 25.3698 9.97957 25.8542 10.1938 26.4842C10.408 27.1142 10.6613 27.7892 10.975 28.4831C11.3218 29.2505 11.736 30.0925 12.2035 30.9866C12.7042 31.941 13.6948 32.5 14.7186 32.5C15.0879 32.5 15.4619 32.4278 15.8182 32.275C21.0662 30.0285 29.2932 27.2302 38.6885 26.6547C40.3206 26.554 41.5586 25.1934 41.5078 23.5556C41.4841 22.7894 41.445 22.0753 41.3929 21.4346C41.3539 20.9539 41.3018 20.479 41.2474 20.0408C41.1444 19.2095 41.4734 18.3841 42.122 17.8548C42.7706 17.3254 43.5151 16.6812 44.2726 15.9375C46.9936 13.2671 48.3737 10.8051 48.3737 8.61901H48.3725ZM16.0573 29.3571C15.8052 29.4577 15.5353 29.5158 15.2643 29.4956C14.605 29.4459 14.0049 29.035 13.7351 28.3979C13.5919 28.0592 13.4569 27.7323 13.3161 27.4232C13.019 26.766 12.7716 26.0922 12.5823 25.5214C12.4 24.9707 12.6474 24.3691 13.167 24.1134C14.3269 23.5414 16.2135 22.8474 18.0386 22.3643C18.2149 22.3181 18.3688 22.2032 18.4505 22.041C19.1192 20.7194 18.0457 19.6867 17.0254 19.971C16.9603 19.9887 15.4075 20.4198 13.7895 21.0427C12.8296 21.4121 12.0591 21.7615 11.4531 22.1097C10.569 22.6177 9.51088 22.7243 8.55573 22.3654C6.36256 21.5412 3.55392 19.9259 3.55392 17.0661C3.55392 14.5366 4.34692 11.634 10.5335 11.634C12.0627 11.634 13.4581 11.8685 14.6263 12.1729C15.1885 12.3197 15.295 13.0729 14.7956 13.3725C13.2084 14.3258 12.1858 14.912 12.1597 14.9274C11.5431 15.2803 11.3289 16.0678 11.6816 16.6847C12.0343 17.3017 12.8213 17.5161 13.438 17.1632C13.4794 17.1395 16.0655 15.6557 19.4589 13.5371C19.4766 13.5264 19.4944 13.5146 19.5121 13.5039C21.6082 12.1954 24.0062 10.6464 26.3023 9.05244C26.9912 8.57401 27.6516 8.09914 28.2895 7.64085C31.832 5.09359 34.63 3.08042 38.5168 3.08042C42.8701 3.08042 45.7947 5.30794 45.7947 8.62375C45.7947 11.0301 42.5978 14.1505 40.3845 15.9493C39.7785 16.442 38.995 16.6528 38.2198 16.5533C37.9973 16.5249 37.7736 16.5 37.5499 16.4787C37.0776 16.4349 36.8054 15.9209 37.0338 15.5041C38.1393 13.4944 38.6033 12.2569 38.6293 12.1871C38.8755 11.5204 38.537 10.7814 37.8706 10.5339C37.2054 10.2852 36.4645 10.6251 36.216 11.2906C36.2089 11.3107 35.4833 13.2268 33.6665 16.1649C33.5565 16.3425 33.3671 16.4574 33.1576 16.4739C32.7067 16.5095 32.3599 16.0843 32.4806 15.6497C32.7978 14.5093 32.8522 13.9871 32.8593 13.903C32.9197 13.1948 32.3966 12.5625 31.6876 12.5021C30.9763 12.4429 30.3561 12.958 30.2957 13.6673C30.2957 13.6768 30.1951 14.5235 29.4838 16.6149C29.4068 16.8422 29.2115 17.0128 28.976 17.0601C27.3178 17.387 26.2088 17.7174 26.0916 17.7529C25.4111 17.959 25.0264 18.6766 25.2324 19.3575C25.4371 20.0373 26.1544 20.4245 26.8361 20.2185C26.8669 20.209 28.1866 19.8182 30.1052 19.4748L30.1643 19.4665C30.2768 19.457 30.8591 19.3481 30.8851 19.3433C32.7232 19.0555 34.9649 18.8495 37.1297 19.0283C37.9475 19.0958 38.6092 19.7223 38.7074 20.537C38.75 20.8946 38.7891 21.2712 38.821 21.6502C38.8494 21.996 38.8731 22.3654 38.8932 22.7551C38.9133 23.1447 38.8056 23.9973 37.9262 24.0387C37.1486 24.0755 33.7447 24.0932 26.932 25.7263C21.7337 26.9721 17.0976 28.945 16.0537 29.363L16.0573 29.3571Z" fill="currentColor"></path>
<path d="M127.831 23.8356C125.607 23.8356 124.073 21.9178 124.073 19.1814C124.073 16.445 125.633 14.5781 127.882 14.5781C130.131 14.5781 131.614 16.445 131.614 19.1292C131.614 21.8135 130.055 23.8344 127.831 23.8344V23.8356ZM127.268 26.3931C128.828 26.3931 130.004 25.6776 130.898 24.4492C131.026 24.2704 131.154 24.1933 131.282 24.1933C131.46 24.1933 131.614 24.3722 131.614 24.7051V25.3696C131.614 25.7534 131.87 26.0093 132.254 26.0093H133.992C134.401 26.0093 134.632 25.7795 134.632 25.3696V13.095C134.632 12.6863 134.402 12.4553 133.992 12.4553H132.254C131.845 12.4553 131.614 12.6851 131.614 13.095V13.3248C131.614 13.6576 131.487 13.8614 131.308 13.8614C131.18 13.8614 131.052 13.7844 130.899 13.6055C129.953 12.5311 128.649 12.0454 127.167 12.0454C123.562 12.0454 120.98 14.9607 120.98 19.1541C120.98 23.3476 123.613 26.3908 127.268 26.3908V26.3931ZM58.6582 26.0093H60.4475C60.8051 26.0093 61.087 25.7286 61.087 25.3696V16.2412C61.087 15.7555 61.2918 15.4997 61.5476 15.4997C61.7525 15.4997 61.9562 15.6537 62.1101 16.0363L65.536 24.7051C65.8688 25.5746 66.4822 26.0093 67.4023 26.0093C68.3224 26.0093 68.911 25.5746 69.2426 24.7051L72.6685 16.0114C72.8224 15.6276 73.0261 15.4748 73.231 15.4748C73.4867 15.4748 73.6916 15.7307 73.6916 16.2164V25.3708C73.6916 25.7286 73.9723 26.0105 74.3311 26.0105H76.1204C76.478 26.0105 76.7599 25.7298 76.7599 25.3708V10.2839C76.7599 8.87784 76.0695 8.11023 74.8166 8.11023C73.5637 8.11023 72.7715 8.67291 72.312 9.82314L67.4035 22.3276L62.4701 9.82314C62.0095 8.67291 61.2172 8.11023 59.9655 8.11023H59.9146C58.6878 8.11023 58.0234 8.87784 58.0234 10.2839V25.3708C58.0234 25.7286 58.3041 26.0105 58.6629 26.0105L58.6582 26.0093ZM85.0138 23.8356C82.7898 23.8356 81.2563 21.9178 81.2563 19.1814C81.2563 16.445 82.8159 14.5781 85.0647 14.5781C87.3135 14.5781 88.7973 16.445 88.7973 19.1292C88.7973 21.8135 87.2377 23.8344 85.0138 23.8344V23.8356ZM84.4513 26.3931C86.0108 26.3931 87.1868 25.6776 88.0808 24.4492C88.2087 24.2704 88.3366 24.1933 88.4645 24.1933C88.6433 24.1933 88.7973 24.3722 88.7973 24.7051V25.3696C88.7973 25.7534 89.0531 26.0093 89.4367 26.0093H91.1751C91.5837 26.0093 91.8146 25.7795 91.8146 25.3696V13.095C91.8146 12.6863 91.5849 12.4553 91.1751 12.4553H89.4367C89.0282 12.4553 88.7973 12.6851 88.7973 13.095V13.3248C88.7973 13.6576 88.6694 13.8614 88.4906 13.8614C88.3627 13.8614 88.2348 13.7844 88.082 13.6055C87.1358 12.5311 85.832 12.0454 84.3494 12.0454C80.7447 12.0454 78.1631 14.9607 78.1631 19.1541C78.1631 23.3476 80.7956 26.3908 84.4513 26.3908V26.3931ZM142.887 23.8356C140.663 23.8356 139.129 21.9178 139.129 19.1814C139.129 16.445 140.689 14.5781 142.938 14.5781C145.187 14.5781 146.67 16.445 146.67 19.1292C146.67 21.8135 145.111 23.8344 142.887 23.8344V23.8356ZM142.324 26.3931C143.884 26.3931 145.06 25.6776 145.954 24.4492C146.082 24.2704 146.21 24.1933 146.338 24.1933C146.516 24.1933 146.67 24.3722 146.67 24.7051V25.3696C146.67 25.7534 146.926 26.0093 147.31 26.0093H149.048C149.457 26.0093 149.688 25.7795 149.688 25.3696V7.46937C149.688 7.06069 149.458 6.82969 149.048 6.82969H147.31C146.901 6.82969 146.67 7.0595 146.67 7.46937V13.3248C146.67 13.6576 146.542 13.8614 146.364 13.8614C146.236 13.8614 146.108 13.7844 145.955 13.6055C145.009 12.5311 143.705 12.0454 142.222 12.0454C138.618 12.0454 136.036 14.9607 136.036 19.1541C136.036 23.3476 138.669 26.3908 142.324 26.3908V26.3931ZM160.424 17.7243H155.005C154.647 17.7243 154.417 17.5455 154.417 17.2635C154.417 17.1865 154.417 17.0847 154.468 16.9828C155.056 15.4997 156.258 14.6041 157.817 14.6041C159.377 14.6041 160.45 15.4997 160.961 17.0077C160.987 17.1095 161.012 17.1865 161.012 17.2635C161.012 17.5443 160.782 17.7243 160.425 17.7243H160.424ZM158.072 26.3931C161.011 26.3931 163.159 24.91 164.028 22.4046C164.054 22.3028 164.079 22.2258 164.079 22.1488C164.079 21.868 163.951 21.714 163.594 21.714H161.778C161.421 21.714 161.242 21.868 161.088 22.1997C160.526 23.248 159.451 23.8368 158.097 23.8368C156.026 23.8368 154.62 22.5326 154.211 20.5377C154.11 20.103 154.365 19.8471 154.799 19.8471H163.644C164.052 19.8471 164.283 19.6173 164.283 19.2074V19.1304C164.283 14.7321 161.651 12.0478 157.816 12.0478C153.982 12.0478 151.093 14.8091 151.093 19.2844C151.093 23.4269 153.931 26.3931 158.072 26.3931ZM108.173 26.0093H109.912C110.32 26.0093 110.551 25.7795 110.551 25.3696V17.8771C110.551 16.1133 111.906 14.6811 113.874 14.6811C115.561 14.6811 116.558 15.6786 116.558 17.1865V25.3696C116.558 25.7783 116.788 26.0093 117.198 26.0093H118.936C119.345 26.0093 119.576 25.7795 119.576 25.3696V17.0337C119.576 13.9905 117.736 12.0478 115.051 12.0478C113.185 12.0478 112.239 12.6875 111.294 13.6328C111.115 13.8116 110.961 13.8886 110.833 13.8886C110.654 13.8886 110.552 13.7346 110.552 13.4278V13.044C110.552 12.6353 110.272 12.4565 109.888 12.4565H108.176C107.767 12.4565 107.536 12.6863 107.536 13.0962V25.3708C107.536 25.7795 107.766 26.0105 108.176 26.0105L108.173 26.0093ZM103.419 26.0093H105.157C105.566 26.0093 105.796 25.7795 105.796 25.3696V13.095C105.796 12.6863 105.567 12.4553 105.157 12.4553H103.419C103.01 12.4553 102.779 12.6851 102.779 13.095V25.3696C102.779 25.7783 103.009 26.0093 103.419 26.0093ZM104.288 10.6417C105.413 10.6417 106.231 9.7722 106.231 8.67291C106.231 7.57361 105.413 6.729 104.288 6.729C103.163 6.729 102.345 7.57243 102.345 8.67291C102.345 9.77339 103.188 10.6417 104.288 10.6417ZM94.1901 26.0093H95.9285C96.3371 26.0093 96.568 25.7795 96.568 25.3696V19.0025C96.568 16.471 97.77 15.2438 100.965 15.2438C101.298 15.2438 101.477 15.014 101.477 14.6041V12.9422C101.477 12.5335 101.298 12.3025 100.965 12.3025C99.2775 12.3025 98.2294 12.6863 97.2844 13.9135C97.1305 14.1185 96.9777 14.2203 96.8498 14.2203C96.671 14.2203 96.5692 14.0663 96.5692 13.7595V13.044C96.5692 12.6353 96.2885 12.4565 95.9049 12.4565H94.1925C93.7839 12.4565 93.553 12.6863 93.553 13.0962V25.3708C93.553 25.7795 93.7828 26.0105 94.1925 26.0105L94.1901 26.0093Z" fill="currentColor"></path>
</svg>